<?xml version="1.0" encoding="UTF-8" standalone="no"?>
<!DOCTYPE svg PUBLIC "-//W3C//DTD SVG 1.1//EN" "http://www.w3.org/Graphics/SVG/1.1/DTD/svg11.dtd">
<svg xmlns="http://www.w3.org/2000/svg" version="1.1" viewBox="0.00 0.00 984.00 385.00">
<g stroke-width="2.00" fill="none" stroke-linecap="butt">
<path stroke="#f64c1c" vector-effect="non-scaling-stroke" d="
  M 476.80 40.72
  Q 459.44 48.36 443.04 58.29"
/>
<path stroke="#d03337" vector-effect="non-scaling-stroke" d="
  M 443.29 104.68
  Q 461.28 86.27 479.96 70.53"
/>
<path stroke="#d94d1b" vector-effect="non-scaling-stroke" d="
  M 479.97 57.01
  Q 460.19 72.90 442.92 90.44"
/>
<path stroke="#9e9fca" vector-effect="non-scaling-stroke" d="
  M 451.45 334.05
  Q 454.65 335.99 457.51 337.53
  A 2.41 2.40 -55.8 0 1 458.21 341.19
  C 455.76 344.11 449.58 342.67 446.68 341.39
  Q 446.15 341.15 445.90 341.67
  L 444.07 345.50
  Q 443.84 345.99 444.34 346.18
  C 450.32 348.57 460.31 348.95 464.59 343.15
  C 469.94 335.91 460.84 332.26 456.10 329.47
  A 2.09 2.08 35.2 0 1 455.56 326.34
  C 457.71 323.78 462.39 324.78 465.22 325.72
  Q 465.80 325.91 466.05 325.35
  L 467.73 321.73
  A 0.69 0.69 0.0 0 0 467.30 320.78
  Q 460.52 318.77 454.28 320.80
  C 448.21 322.78 444.97 330.13 451.45 334.05"
/>
<path stroke="#9e9fca" vector-effect="non-scaling-stroke" d="
  M 590.53 320.71
  C 560.55 312.13 553.25 355.79 586.35 346.80
  Q 586.77 346.69 586.73 346.26
  L 586.42 342.92
  A 0.79 0.77 -9.5 0 0 585.45 342.24
  C 564.52 347.60 569.07 320.04 588.56 325.47
  A 0.75 0.75 0.0 0 0 589.46 325.01
  L 590.84 321.34
  A 0.48 0.47 19.1 0 0 590.53 320.71"
/>
<path stroke="#9e9fca" vector-effect="non-scaling-stroke" d="
  M 625.33 336.49
  C 625.31 347.74 639.12 349.41 647.23 346.64
  Q 647.63 346.50 647.61 346.07
  L 647.44 342.78
  A 0.56 0.56 0.0 0 0 646.78 342.25
  C 641.20 343.24 633.18 344.05 632.76 335.87
  C 632.28 326.55 641.72 323.21 649.60 325.45
  Q 650.13 325.61 650.34 325.09
  L 651.71 321.71
  A 0.88 0.88 0.0 0 0 651.09 320.53
  C 639.55 317.90 625.36 322.77 625.33 336.49"
/>
<path stroke="#9e9fca" vector-effect="non-scaling-stroke" d="
  M 477.36 342.50
  A 0.38 0.38 0.0 0 1 476.98 342.04
  L 478.33 336.05
  A 0.38 0.38 0.0 0 1 478.70 335.75
  L 489.51 335.75
  A 0.38 0.38 0.0 0 0 489.88 335.45
  L 490.71 331.46
  A 0.38 0.38 0.0 0 0 490.33 331.00
  L 479.91 331.00
  A 0.38 0.38 0.0 0 1 479.54 330.53
  L 480.72 325.41
  A 0.38 0.38 0.0 0 1 481.09 325.12
  L 492.57 324.95
  A 0.38 0.38 0.0 0 0 492.93 324.66
  L 493.81 320.71
  A 0.38 0.38 0.0 0 0 493.44 320.25
  L 475.35 320.25
  A 0.38 0.38 0.0 0 0 474.98 320.55
  L 469.10 347.04
  A 0.38 0.38 0.0 0 0 469.47 347.50
  L 488.20 347.50
  A 0.38 0.38 0.0 0 0 488.57 347.21
  L 489.54 342.97
  A 0.38 0.38 0.0 0 0 489.17 342.50
  L 477.36 342.50"
/>
<path stroke="#9e9fca" vector-effect="non-scaling-stroke" d="
  M 513.49 334.29
  C 517.42 333.16 520.86 329.73 519.81 325.39
  C 518.22 318.87 505.23 319.56 499.89 320.84
  Q 499.53 320.93 499.45 321.29
  L 493.69 346.87
  Q 493.54 347.50 494.19 347.50
  L 499.70 347.50
  Q 500.24 347.50 500.35 346.97
  L 502.47 337.54
  Q 502.58 337.07 503.04 336.95
  C 510.11 335.08 509.12 342.78 509.88 346.97
  A 0.64 0.64 0.0 0 0 510.51 347.50
  L 516.25 347.50
  Q 516.78 347.50 516.71 346.97
  C 516.20 343.24 516.36 337.62 513.34 334.96
  Q 512.81 334.49 513.49 334.29"
/>
<path stroke="#9e9fca" vector-effect="non-scaling-stroke" d="
  M 686.61 327.76
  L 693.94 346.92
  Q 694.16 347.50 694.78 347.50
  L 700.62 347.50
  Q 701.28 347.50 701.42 346.86
  L 707.19 320.77
  Q 707.31 320.25 706.78 320.25
  L 701.45 320.25
  Q 700.92 320.25 700.82 320.77
  L 697.20 338.94
  Q 697.19 338.95 697.19 338.94
  L 690.50 320.82
  Q 690.29 320.26 689.69 320.25
  L 682.70 320.24
  Q 682.07 320.24 681.93 320.85
  L 676.21 346.78
  Q 676.05 347.50 676.79 347.50
  L 681.54 347.50
  Q 682.34 347.50 682.51 346.71
  L 686.51 327.76
  Q 686.55 327.59 686.61 327.76"
/>
<path stroke="#9e9fca" vector-effect="non-scaling-stroke" d="
  M 776.98 334.30
  C 785.98 331.44 786.03 322.24 776.31 320.47
  Q 770.09 319.34 763.64 320.70
  Q 763.16 320.80 763.05 321.28
  L 757.38 346.79
  Q 757.22 347.50 757.96 347.50
  L 763.18 347.50
  Q 763.86 347.50 764.02 346.83
  L 766.20 337.32
  Q 766.30 336.90 766.73 336.81
  Q 769.49 336.30 771.74 337.80
  A 1.42 1.39 12.9 0 1 772.36 338.77
  L 773.54 347.05
  A 0.52 0.51 86.2 0 0 774.05 347.50
  L 779.99 347.50
  Q 780.47 347.50 780.40 347.03
  C 779.90 343.46 779.95 337.19 776.88 334.92
  Q 776.33 334.51 776.98 334.30"
/>
<path stroke="#9e9fca" vector-effect="non-scaling-stroke" d="
  M 532.97 340.70
  L 530.88 320.91
  Q 530.81 320.25 530.15 320.25
  L 524.28 320.25
  Q 523.82 320.25 523.88 320.70
  L 527.63 346.74
  Q 527.74 347.50 528.51 347.50
  L 535.07 347.50
  Q 535.62 347.50 535.90 347.03
  L 551.65 320.93
  Q 552.05 320.25 551.26 320.25
  L 545.12 320.25
  Q 544.45 320.25 544.13 320.84
  L 533.37 340.77
  Q 533.04 341.37 532.97 340.70"
/>
<path stroke="#9e9fca" vector-effect="non-scaling-stroke" d="
  M 556.09 320.25
  A 0.35 0.35 0.0 0 0 555.75 320.52
  L 549.82 347.07
  A 0.35 0.35 0.0 0 0 550.16 347.50
  L 556.21 347.50
  A 0.35 0.35 0.0 0 0 556.55 347.23
  L 562.46 320.68
  A 0.35 0.35 0.0 0 0 562.11 320.25
  L 556.09 320.25"
/>
<path stroke="#9e9fca" vector-effect="non-scaling-stroke" d="
  M 598.92 342.50
  A 0.38 0.38 0.0 0 1 598.55 342.04
  L 599.84 336.05
  A 0.38 0.38 0.0 0 1 600.21 335.75
  L 611.02 335.75
  A 0.38 0.38 0.0 0 0 611.40 335.45
  L 612.27 331.46
  A 0.38 0.38 0.0 0 0 611.90 331.00
  L 601.40 331.00
  A 0.38 0.38 0.0 0 1 601.03 330.53
  L 602.35 325.29
  A 0.38 0.38 0.0 0 1 602.72 325.00
  L 614.07 325.00
  A 0.38 0.38 0.0 0 0 614.44 324.71
  L 615.37 320.72
  A 0.38 0.38 0.0 0 0 615.00 320.25
  L 596.91 320.25
  A 0.38 0.38 0.0 0 0 596.54 320.55
  L 590.66 347.04
  A 0.38 0.38 0.0 0 0 591.03 347.50
  L 609.80 347.50
  A 0.38 0.38 0.0 0 0 610.17 347.20
  L 611.05 342.96
  A 0.38 0.38 0.0 0 0 610.67 342.50
  L 598.92 342.50"
/>
<path stroke="#9e9fca" vector-effect="non-scaling-stroke" d="
  M 659.83 342.50
  A 0.38 0.38 0.0 0 1 659.45 342.04
  L 660.81 336.01
  A 0.38 0.38 0.0 0 1 661.19 335.71
  L 671.92 335.83
  A 0.38 0.38 0.0 0 0 672.30 335.53
  L 673.24 331.47
  A 0.38 0.38 0.0 0 0 672.87 331.00
  L 662.41 331.00
  A 0.38 0.38 0.0 0 1 662.04 330.54
  L 663.22 325.30
  A 0.38 0.38 0.0 0 1 663.59 325.00
  L 675.04 325.00
  A 0.38 0.38 0.0 0 0 675.41 324.70
  L 676.30 320.71
  A 0.38 0.38 0.0 0 0 675.93 320.25
  L 657.83 320.25
  A 0.38 0.38 0.0 0 0 657.45 320.55
  L 651.62 347.04
  A 0.38 0.38 0.0 0 0 651.99 347.50
  L 670.73 347.50
  A 0.38 0.38 0.0 0 0 671.10 347.20
  L 672.00 342.96
  A 0.38 0.38 0.0 0 0 671.63 342.50
  L 659.83 342.50"
/>
<path stroke="#9e9fca" vector-effect="non-scaling-stroke" d="
  M 717.98 325.25
  A 0.34 0.34 0.0 0 1 718.31 325.66
  L 713.52 347.09
  A 0.34 0.34 0.0 0 0 713.85 347.50
  L 719.98 347.50
  A 0.34 0.34 0.0 0 0 720.31 347.23
  L 725.09 325.52
  A 0.34 0.34 0.0 0 1 725.42 325.25
  L 733.37 325.25
  A 0.34 0.34 0.0 0 0 733.70 324.99
  L 734.70 320.67
  A 0.34 0.34 0.0 0 0 734.37 320.25
  L 711.34 320.25
  A 0.34 0.34 0.0 0 0 711.01 320.51
  L 709.99 324.83
  A 0.34 0.34 0.0 0 0 710.32 325.25
  L 717.98 325.25"
/>
<path stroke="#9e9fca" vector-effect="non-scaling-stroke" d="
  M 741.05 342.50
  A 0.38 0.38 0.0 0 1 740.68 342.04
  L 741.95 336.05
  A 0.38 0.38 0.0 0 1 742.32 335.75
  L 753.12 335.75
  A 0.38 0.38 0.0 0 0 753.49 335.45
  L 754.38 331.46
  A 0.38 0.38 0.0 0 0 754.01 331.00
  L 743.57 331.00
  A 0.38 0.38 0.0 0 1 743.20 330.53
  L 744.36 325.46
  A 0.38 0.38 0.0 0 1 744.73 325.16
  L 756.19 324.97
  A 0.38 0.38 0.0 0 0 756.56 324.67
  L 757.47 320.72
  A 0.38 0.38 0.0 0 0 757.10 320.25
  L 739.00 320.25
  A 0.38 0.38 0.0 0 0 738.63 320.55
  L 732.71 347.04
  A 0.38 0.38 0.0 0 0 733.08 347.50
  L 751.96 347.50
  A 0.38 0.38 0.0 0 0 752.33 347.19
  L 753.13 342.95
  A 0.38 0.38 0.0 0 0 752.76 342.50
  L 741.05 342.50"
/>
<path stroke="#9e9fca" vector-effect="non-scaling-stroke" d="
  M 504.13 332.20
  C 513.86 333.54 516.54 323.06 505.94 324.84
  Q 505.41 324.93 505.29 325.45
  L 503.80 331.73
  Q 503.71 332.15 504.13 332.20"
/>
<path stroke="#9e9fca" vector-effect="non-scaling-stroke" d="
  M 767.92 332.12
  C 777.47 333.75 780.21 322.96 769.53 324.84
  Q 769.01 324.93 768.89 325.45
  L 767.54 331.56
  Q 767.44 332.04 767.92 332.12"
/>
</g>
<path fill="#ed3237" d="
  M 307.06 0.00
  L 420.81 0.00
  C 446.45 1.14 468.23 16.36 476.80 40.72
  Q 459.44 48.36 443.04 58.29
  C 442.13 48.78 434.85 45.24 426.25 45.24
  Q 365.26 45.21 304.26 45.28
  C 288.98 45.30 284.26 49.75 284.26 65.34
  Q 284.23 142.54 284.26 219.76
  C 284.27 235.46 290.18 238.69 305.54 238.72
  Q 364.54 238.81 423.52 238.71
  C 431.55 238.70 438.61 237.96 441.82 230.53
  Q 443.28 227.15 443.27 216.80
  Q 443.20 159.70 443.29 104.68
  Q 461.28 86.27 479.96 70.53
  Q 480.06 143.00 479.97 214.44
  Q 479.95 228.81 479.00 234.38
  C 474.02 263.53 448.34 283.98 418.75 284.00
  Q 363.75 284.03 308.75 283.84
  C 280.42 283.75 255.59 265.44 249.24 237.66
  Q 247.79 231.33 247.78 218.10
  Q 247.72 138.55 247.76 59.00
  C 247.78 26.38 274.65 1.28 307.06 0.00
  Z
  M 403.77 24.27
  A 5.77 5.77 0.0 0 0 398.00 18.50
  L 329.54 18.50
  A 5.77 5.77 0.0 0 0 323.77 24.27
  L 323.77 24.47
  A 5.77 5.77 0.0 0 0 329.54 30.24
  L 398.00 30.24
  A 5.77 5.77 0.0 0 0 403.77 24.47
  L 403.77 24.27
  Z
  M 376.13 258.57
  A 12.33 12.33 0.0 0 0 363.80 246.24
  A 12.33 12.33 0.0 0 0 351.47 258.57
  A 12.33 12.33 0.0 0 0 363.80 270.90
  A 12.33 12.33 0.0 0 0 376.13 258.57
  Z"
/>
<path fill="#ff6600" d="
  M 479.97 57.01
  Q 460.19 72.90 442.92 90.44
  C 413.27 120.73 387.27 153.86 363.21 188.53
  A 0.43 0.43 0.0 0 1 362.49 188.52
  L 307.74 101.96
  A 0.25 0.25 0.0 0 1 308.05 101.59
  L 362.39 125.06
  Q 362.84 125.25 363.17 124.89
  Q 398.47 85.99 443.04 58.29
  Q 459.44 48.36 476.80 40.72
  Q 498.63 31.14 521.70 26.96
  A 0.31 0.31 0.0 0 1 521.91 27.53
  Q 500.00 41.03 479.97 57.01
  Z"
/>
<path fill="#ed3237" d="
  M 183.50 54.76
  C 210.26 54.76 228.61 78.49 233.54 102.75
  C 240.78 138.43 224.41 185.20 181.14 185.23
  Q 113.06 185.27 45.02 185.24
  A 0.52 0.52 0.0 0 0 44.50 185.76
  L 44.50 247.75
  A 0.50 0.50 0.0 0 1 44.00 248.25
  L 1.25 248.25
  Q 0.75 248.25 0.75 247.75
  L 0.75 55.50
  A 0.75 0.75 0.0 0 1 1.50 54.75
  Q 92.28 54.74 183.50 54.76
  Z
  M 185.68 139.05
  C 194.26 134.30 193.95 100.01 183.23 100.01
  Q 114.14 99.98 45.02 100.00
  Q 44.50 100.00 44.50 100.51
  L 44.50 164.76
  Q 44.50 165.41 45.01 165.00
  L 74.88 140.57
  Q 75.30 140.22 75.86 140.22
  Q 126.98 140.30 178.13 140.24
  Q 183.55 140.24 185.68 139.05
  Z"
/>
<rect fill="#ed3237" x="498.25" y="54.75" width="43.50" height="193.50" rx="0.26"/>
<path fill="#ed3237" d="
  M 716.02 183.93
  A 0.14 0.14 0.0 0 0 716.26 183.84
  L 716.25 55.25
  A 0.50 0.50 0.0 0 1 716.75 54.75
  L 759.50 54.75
  Q 760.00 54.75 760.00 55.25
  L 760.00 247.75
  A 0.50 0.50 0.0 0 1 759.50 248.25
  L 716.83 248.25
  Q 716.32 248.25 715.99 247.87
  L 604.13 118.36
  A 0.22 0.22 0.0 0 0 603.75 118.50
  L 603.75 247.75
  A 0.50 0.50 0.0 0 1 603.25 248.25
  L 560.50 248.25
  A 0.50 0.50 0.0 0 1 560.00 247.75
  L 560.00 55.25
  A 0.50 0.50 0.0 0 1 560.50 54.75
  L 603.30 54.75
  Q 603.82 54.75 604.17 55.14
  L 716.02 183.93
  Z"
/>
<path fill="#ed3237" d="
  M 858.68 99.86
  L 778.81 100.04
  A 0.56 0.56 0.0 0 1 778.25 99.48
  L 778.25 55.31
  A 0.56 0.56 0.0 0 1 778.81 54.75
  L 983.19 54.75
  A 0.56 0.56 0.0 0 1 983.75 55.31
  L 983.75 99.39
  A 0.56 0.56 0.0 0 1 983.19 99.95
  L 903.31 99.98
  A 0.56 0.56 0.0 0 0 902.75 100.54
  L 902.75 247.69
  A 0.56 0.56 0.0 0 1 902.19 248.25
  L 859.71 248.25
  A 0.56 0.56 0.0 0 1 859.15 247.69
  L 859.24 100.42
  A 0.56 0.56 0.0 0 0 858.68 99.86
  Z"
/>
<path fill="#b33336" d="
  M 479.97 57.01
  L 479.96 70.53
  Q 461.28 86.27 443.29 104.68
  L 442.92 90.44
  Q 460.19 72.90 479.97 57.01
  Z"
/>
<path fill="#3e4095" d="
  M 443.37 365.86
  Q 422.01 364.46 413.46 345.16
  Q 413.15 344.45 412.37 344.52
  C 369.93 348.16 328.70 352.55 286.77 362.27
  C 275.03 364.99 245.77 369.33 246.21 348.69
  C 246.36 341.88 250.55 332.70 254.49 326.60
  Q 255.73 324.69 253.49 325.07
  C 213.83 331.82 175.56 345.34 136.28 353.94
  Q 121.47 357.17 116.70 357.93
  C 109.02 359.13 68.26 363.52 70.23 348.25
  C 72.27 332.44 118.14 305.73 131.72 298.30
  Q 137.66 295.05 138.28 294.83
  C 146.16 292.04 152.95 301.24 147.87 307.99
  Q 146.70 309.54 143.55 311.29
  C 127.93 319.94 110.91 328.81 97.16 340.25
  A 1.25 1.24 -66.6 0 0 98.03 342.45
  Q 113.73 341.49 129.74 337.70
  Q 162.43 329.95 194.84 321.11
  C 214.09 315.85 233.97 310.40 253.94 308.87
  C 266.95 307.87 282.04 313.97 272.15 330.20
  Q 267.22 338.29 262.60 346.33
  A 0.64 0.64 0.0 0 0 263.00 347.27
  C 269.58 348.90 279.35 346.37 285.92 344.85
  C 327.23 335.23 369.88 330.84 412.08 327.22
  Q 412.44 327.19 412.56 326.85
  Q 420.26 305.04 443.50 303.49
  A 0.32 0.32 0.0 0 0 443.80 303.17
  L 443.84 291.63
  Q 443.84 290.90 444.54 290.70
  Q 446.12 290.25 448.00 290.25
  Q 605.65 290.25 764.07 290.25
  A 0.95 0.95 0.0 0 0 765.02 289.30
  L 764.99 286.00
  Q 764.99 285.24 765.75 285.24
  L 801.00 285.26
  Q 801.50 285.26 801.50 285.75
  L 801.50 316.25
  Q 801.50 316.75 802.00 316.75
  L 893.50 316.75
  A 0.75 0.75 0.0 0 1 894.25 317.50
  L 894.25 325.70
  Q 894.25 326.23 894.78 326.23
  Q 913.61 326.29 932.39 326.24
  Q 934.99 326.24 937.40 327.25
  Q 945.88 330.85 954.30 334.28
  A 0.40 0.40 0.0 0 1 954.30 335.02
  Q 945.79 338.49 937.24 342.20
  Q 934.92 343.21 932.41 343.22
  Q 913.60 343.27 894.77 343.24
  Q 894.25 343.24 894.25 343.76
  L 894.25 352.00
  A 0.75 0.75 0.0 0 1 893.50 352.75
  L 802.00 352.75
  Q 801.50 352.75 801.50 353.25
  L 801.50 383.75
  A 0.50 0.50 0.0 0 1 801.00 384.25
  L 765.62 384.25
  A 0.66 0.66 0.0 0 1 764.96 383.55
  L 765.16 379.72
  A 0.68 0.68 0.0 0 0 764.48 379.00
  L 445.86 379.00
  A 2.15 2.15 0.0 0 1 443.71 376.80
  L 443.93 366.48
  Q 443.94 365.90 443.37 365.86
  Z
  M 451.45 334.05
  Q 454.65 335.99 457.51 337.53
  A 2.41 2.40 -55.8 0 1 458.21 341.19
  C 455.76 344.11 449.58 342.67 446.68 341.39
  Q 446.15 341.15 445.90 341.67
  L 444.07 345.50
  Q 443.84 345.99 444.34 346.18
  C 450.32 348.57 460.31 348.95 464.59 343.15
  C 469.94 335.91 460.84 332.26 456.10 329.47
  A 2.09 2.08 35.2 0 1 455.56 326.34
  C 457.71 323.78 462.39 324.78 465.22 325.72
  Q 465.80 325.91 466.05 325.35
  L 467.73 321.73
  A 0.69 0.69 0.0 0 0 467.30 320.78
  Q 460.52 318.77 454.28 320.80
  C 448.21 322.78 444.97 330.13 451.45 334.05
  Z
  M 590.53 320.71
  C 560.55 312.13 553.25 355.79 586.35 346.80
  Q 586.77 346.69 586.73 346.26
  L 586.42 342.92
  A 0.79 0.77 -9.5 0 0 585.45 342.24
  C 564.52 347.60 569.07 320.04 588.56 325.47
  A 0.75 0.75 0.0 0 0 589.46 325.01
  L 590.84 321.34
  A 0.48 0.47 19.1 0 0 590.53 320.71
  Z
  M 625.33 336.49
  C 625.31 347.74 639.12 349.41 647.23 346.64
  Q 647.63 346.50 647.61 346.07
  L 647.44 342.78
  A 0.56 0.56 0.0 0 0 646.78 342.25
  C 641.20 343.24 633.18 344.05 632.76 335.87
  C 632.28 326.55 641.72 323.21 649.60 325.45
  Q 650.13 325.61 650.34 325.09
  L 651.71 321.71
  A 0.88 0.88 0.0 0 0 651.09 320.53
  C 639.55 317.90 625.36 322.77 625.33 336.49
  Z
  M 477.36 342.50
  A 0.38 0.38 0.0 0 1 476.98 342.04
  L 478.33 336.05
  A 0.38 0.38 0.0 0 1 478.70 335.75
  L 489.51 335.75
  A 0.38 0.38 0.0 0 0 489.88 335.45
  L 490.71 331.46
  A 0.38 0.38 0.0 0 0 490.33 331.00
  L 479.91 331.00
  A 0.38 0.38 0.0 0 1 479.54 330.53
  L 480.72 325.41
  A 0.38 0.38 0.0 0 1 481.09 325.12
  L 492.57 324.95
  A 0.38 0.38 0.0 0 0 492.93 324.66
  L 493.81 320.71
  A 0.38 0.38 0.0 0 0 493.44 320.25
  L 475.35 320.25
  A 0.38 0.38 0.0 0 0 474.98 320.55
  L 469.10 347.04
  A 0.38 0.38 0.0 0 0 469.47 347.50
  L 488.20 347.50
  A 0.38 0.38 0.0 0 0 488.57 347.21
  L 489.54 342.97
  A 0.38 0.38 0.0 0 0 489.17 342.50
  L 477.36 342.50
  Z
  M 513.49 334.29
  C 517.42 333.16 520.86 329.73 519.81 325.39
  C 518.22 318.87 505.23 319.56 499.89 320.84
  Q 499.53 320.93 499.45 321.29
  L 493.69 346.87
  Q 493.54 347.50 494.19 347.50
  L 499.70 347.50
  Q 500.24 347.50 500.35 346.97
  L 502.47 337.54
  Q 502.58 337.07 503.04 336.95
  C 510.11 335.08 509.12 342.78 509.88 346.97
  A 0.64 0.64 0.0 0 0 510.51 347.50
  L 516.25 347.50
  Q 516.78 347.50 516.71 346.97
  C 516.20 343.24 516.36 337.62 513.34 334.96
  Q 512.81 334.49 513.49 334.29
  Z
  M 686.61 327.76
  L 693.94 346.92
  Q 694.16 347.50 694.78 347.50
  L 700.62 347.50
  Q 701.28 347.50 701.42 346.86
  L 707.19 320.77
  Q 707.31 320.25 706.78 320.25
  L 701.45 320.25
  Q 700.92 320.25 700.82 320.77
  L 697.20 338.94
  Q 697.19 338.95 697.19 338.94
  L 690.50 320.82
  Q 690.29 320.26 689.69 320.25
  L 682.70 320.24
  Q 682.07 320.24 681.93 320.85
  L 676.21 346.78
  Q 676.05 347.50 676.79 347.50
  L 681.54 347.50
  Q 682.34 347.50 682.51 346.71
  L 686.51 327.76
  Q 686.55 327.59 686.61 327.76
  Z
  M 776.98 334.30
  C 785.98 331.44 786.03 322.24 776.31 320.47
  Q 770.09 319.34 763.64 320.70
  Q 763.16 320.80 763.05 321.28
  L 757.38 346.79
  Q 757.22 347.50 757.96 347.50
  L 763.18 347.50
  Q 763.86 347.50 764.02 346.83
  L 766.20 337.32
  Q 766.30 336.90 766.73 336.81
  Q 769.49 336.30 771.74 337.80
  A 1.42 1.39 12.9 0 1 772.36 338.77
  L 773.54 347.05
  A 0.52 0.51 86.2 0 0 774.05 347.50
  L 779.99 347.50
  Q 780.47 347.50 780.40 347.03
  C 779.90 343.46 779.95 337.19 776.88 334.92
  Q 776.33 334.51 776.98 334.30
  Z
  M 532.97 340.70
  L 530.88 320.91
  Q 530.81 320.25 530.15 320.25
  L 524.28 320.25
  Q 523.82 320.25 523.88 320.70
  L 527.63 346.74
  Q 527.74 347.50 528.51 347.50
  L 535.07 347.50
  Q 535.62 347.50 535.90 347.03
  L 551.65 320.93
  Q 552.05 320.25 551.26 320.25
  L 545.12 320.25
  Q 544.45 320.25 544.13 320.84
  L 533.37 340.77
  Q 533.04 341.37 532.97 340.70
  Z
  M 556.09 320.25
  A 0.35 0.35 0.0 0 0 555.75 320.52
  L 549.82 347.07
  A 0.35 0.35 0.0 0 0 550.16 347.50
  L 556.21 347.50
  A 0.35 0.35 0.0 0 0 556.55 347.23
  L 562.46 320.68
  A 0.35 0.35 0.0 0 0 562.11 320.25
  L 556.09 320.25
  Z
  M 598.92 342.50
  A 0.38 0.38 0.0 0 1 598.55 342.04
  L 599.84 336.05
  A 0.38 0.38 0.0 0 1 600.21 335.75
  L 611.02 335.75
  A 0.38 0.38 0.0 0 0 611.40 335.45
  L 612.27 331.46
  A 0.38 0.38 0.0 0 0 611.90 331.00
  L 601.40 331.00
  A 0.38 0.38 0.0 0 1 601.03 330.53
  L 602.35 325.29
  A 0.38 0.38 0.0 0 1 602.72 325.00
  L 614.07 325.00
  A 0.38 0.38 0.0 0 0 614.44 324.71
  L 615.37 320.72
  A 0.38 0.38 0.0 0 0 615.00 320.25
  L 596.91 320.25
  A 0.38 0.38 0.0 0 0 596.54 320.55
  L 590.66 347.04
  A 0.38 0.38 0.0 0 0 591.03 347.50
  L 609.80 347.50
  A 0.38 0.38 0.0 0 0 610.17 347.20
  L 611.05 342.96
  A 0.38 0.38 0.0 0 0 610.67 342.50
  L 598.92 342.50
  Z
  M 659.83 342.50
  A 0.38 0.38 0.0 0 1 659.45 342.04
  L 660.81 336.01
  A 0.38 0.38 0.0 0 1 661.19 335.71
  L 671.92 335.83
  A 0.38 0.38 0.0 0 0 672.30 335.53
  L 673.24 331.47
  A 0.38 0.38 0.0 0 0 672.87 331.00
  L 662.41 331.00
  A 0.38 0.38 0.0 0 1 662.04 330.54
  L 663.22 325.30
  A 0.38 0.38 0.0 0 1 663.59 325.00
  L 675.04 325.00
  A 0.38 0.38 0.0 0 0 675.41 324.70
  L 676.30 320.71
  A 0.38 0.38 0.0 0 0 675.93 320.25
  L 657.83 320.25
  A 0.38 0.38 0.0 0 0 657.45 320.55
  L 651.62 347.04
  A 0.38 0.38 0.0 0 0 651.99 347.50
  L 670.73 347.50
  A 0.38 0.38 0.0 0 0 671.10 347.20
  L 672.00 342.96
  A 0.38 0.38 0.0 0 0 671.63 342.50
  L 659.83 342.50
  Z
  M 717.98 325.25
  A 0.34 0.34 0.0 0 1 718.31 325.66
  L 713.52 347.09
  A 0.34 0.34 0.0 0 0 713.85 347.50
  L 719.98 347.50
  A 0.34 0.34 0.0 0 0 720.31 347.23
  L 725.09 325.52
  A 0.34 0.34 0.0 0 1 725.42 325.25
  L 733.37 325.25
  A 0.34 0.34 0.0 0 0 733.70 324.99
  L 734.70 320.67
  A 0.34 0.34 0.0 0 0 734.37 320.25
  L 711.34 320.25
  A 0.34 0.34 0.0 0 0 711.01 320.51
  L 709.99 324.83
  A 0.34 0.34 0.0 0 0 710.32 325.25
  L 717.98 325.25
  Z
  M 741.05 342.50
  A 0.38 0.38 0.0 0 1 740.68 342.04
  L 741.95 336.05
  A 0.38 0.38 0.0 0 1 742.32 335.75
  L 753.12 335.75
  A 0.38 0.38 0.0 0 0 753.49 335.45
  L 754.38 331.46
  A 0.38 0.38 0.0 0 0 754.01 331.00
  L 743.57 331.00
  A 0.38 0.38 0.0 0 1 743.20 330.53
  L 744.36 325.46
  A 0.38 0.38 0.0 0 1 744.73 325.16
  L 756.19 324.97
  A 0.38 0.38 0.0 0 0 756.56 324.67
  L 757.47 320.72
  A 0.38 0.38 0.0 0 0 757.10 320.25
  L 739.00 320.25
  A 0.38 0.38 0.0 0 0 738.63 320.55
  L 732.71 347.04
  A 0.38 0.38 0.0 0 0 733.08 347.50
  L 751.96 347.50
  A 0.38 0.38 0.0 0 0 752.33 347.19
  L 753.13 342.95
  A 0.38 0.38 0.0 0 0 752.76 342.50
  L 741.05 342.50
  Z"
/>
<path fill="#fefefe" d="
  M 451.45 334.05
  C 444.97 330.13 448.21 322.78 454.28 320.80
  Q 460.52 318.77 467.30 320.78
  A 0.69 0.69 0.0 0 1 467.73 321.73
  L 466.05 325.35
  Q 465.80 325.91 465.22 325.72
  C 462.39 324.78 457.71 323.78 455.56 326.34
  A 2.09 2.08 35.2 0 0 456.10 329.47
  C 460.84 332.26 469.94 335.91 464.59 343.15
  C 460.31 348.95 450.32 348.57 444.34 346.18
  Q 443.84 345.99 444.07 345.50
  L 445.90 341.67
  Q 446.15 341.15 446.68 341.39
  C 449.58 342.67 455.76 344.11 458.21 341.19
  A 2.41 2.40 -55.8 0 0 457.51 337.53
  Q 454.65 335.99 451.45 334.05
  Z"
/>
<path fill="#fefefe" d="
  M 586.35 346.80
  C 553.25 355.79 560.55 312.13 590.53 320.71
  A 0.48 0.47 19.1 0 1 590.84 321.34
  L 589.46 325.01
  A 0.75 0.75 0.0 0 1 588.56 325.47
  C 569.07 320.04 564.52 347.60 585.45 342.24
  A 0.79 0.77 -9.5 0 1 586.42 342.92
  L 586.73 346.26
  Q 586.77 346.69 586.35 346.80
  Z"
/>
<path fill="#fefefe" d="
  M 647.23 346.64
  C 639.12 349.41 625.31 347.74 625.33 336.49
  C 625.36 322.77 639.55 317.90 651.09 320.53
  A 0.88 0.88 0.0 0 1 651.71 321.71
  L 650.34 325.09
  Q 650.13 325.61 649.60 325.45
  C 641.72 323.21 632.28 326.55 632.76 335.87
  C 633.18 344.05 641.20 343.24 646.78 342.25
  A 0.56 0.56 0.0 0 1 647.44 342.78
  L 647.61 346.07
  Q 647.63 346.50 647.23 346.64
  Z"
/>
<path fill="#fefefe" d="
  M 477.36 342.50
  L 489.17 342.50
  A 0.38 0.38 0.0 0 1 489.54 342.97
  L 488.57 347.21
  A 0.38 0.38 0.0 0 1 488.20 347.50
  L 469.47 347.50
  A 0.38 0.38 0.0 0 1 469.10 347.04
  L 474.98 320.55
  A 0.38 0.38 0.0 0 1 475.35 320.25
  L 493.44 320.25
  A 0.38 0.38 0.0 0 1 493.81 320.71
  L 492.93 324.66
  A 0.38 0.38 0.0 0 1 492.57 324.95
  L 481.09 325.12
  A 0.38 0.38 0.0 0 0 480.72 325.41
  L 479.54 330.53
  A 0.38 0.38 0.0 0 0 479.91 331.00
  L 490.33 331.00
  A 0.38 0.38 0.0 0 1 490.71 331.46
  L 489.88 335.45
  A 0.38 0.38 0.0 0 1 489.51 335.75
  L 478.70 335.75
  A 0.38 0.38 0.0 0 0 478.33 336.05
  L 476.98 342.04
  A 0.38 0.38 0.0 0 0 477.36 342.50
  Z"
/>
<path fill="#fefefe" d="
  M 513.34 334.96
  C 516.36 337.62 516.20 343.24 516.71 346.97
  Q 516.78 347.50 516.25 347.50
  L 510.51 347.50
  A 0.64 0.64 0.0 0 1 509.88 346.97
  C 509.12 342.78 510.11 335.08 503.04 336.95
  Q 502.58 337.07 502.47 337.54
  L 500.35 346.97
  Q 500.24 347.50 499.70 347.50
  L 494.19 347.50
  Q 493.54 347.50 493.69 346.87
  L 499.45 321.29
  Q 499.53 320.93 499.89 320.84
  C 505.23 319.56 518.22 318.87 519.81 325.39
  C 520.86 329.73 517.42 333.16 513.49 334.29
  Q 512.81 334.49 513.34 334.96
  Z
  M 504.13 332.20
  C 513.86 333.54 516.54 323.06 505.94 324.84
  Q 505.41 324.93 505.29 325.45
  L 503.80 331.73
  Q 503.71 332.15 504.13 332.20
  Z"
/>
<path fill="#fefefe" d="
  M 686.51 327.76
  L 682.51 346.71
  Q 682.34 347.50 681.54 347.50
  L 676.79 347.50
  Q 676.05 347.50 676.21 346.78
  L 681.93 320.85
  Q 682.07 320.24 682.70 320.24
  L 689.69 320.25
  Q 690.29 320.26 690.50 320.82
  L 697.19 338.94
  Q 697.19 338.95 697.20 338.94
  L 700.82 320.77
  Q 700.92 320.25 701.45 320.25
  L 706.78 320.25
  Q 707.31 320.25 707.19 320.77
  L 701.42 346.86
  Q 701.28 347.50 700.62 347.50
  L 694.78 347.50
  Q 694.16 347.50 693.94 346.92
  L 686.61 327.76
  Q 686.55 327.59 686.51 327.76
  Z"
/>
<path fill="#fefefe" d="
  M 776.88 334.92
  C 779.95 337.19 779.90 343.46 780.40 347.03
  Q 780.47 347.50 779.99 347.50
  L 774.05 347.50
  A 0.52 0.51 86.2 0 1 773.54 347.05
  L 772.36 338.77
  A 1.42 1.39 12.9 0 0 771.74 337.80
  Q 769.49 336.30 766.73 336.81
  Q 766.30 336.90 766.20 337.32
  L 764.02 346.83
  Q 763.86 347.50 763.18 347.50
  L 757.96 347.50
  Q 757.22 347.50 757.38 346.79
  L 763.05 321.28
  Q 763.16 320.80 763.64 320.70
  Q 770.09 319.34 776.31 320.47
  C 786.03 322.24 785.98 331.44 776.98 334.30
  Q 776.33 334.51 776.88 334.92
  Z
  M 767.92 332.12
  C 777.47 333.75 780.21 322.96 769.53 324.84
  Q 769.01 324.93 768.89 325.45
  L 767.54 331.56
  Q 767.44 332.04 767.92 332.12
  Z"
/>
<path fill="#fefefe" d="
  M 533.37 340.77
  L 544.13 320.84
  Q 544.45 320.25 545.12 320.25
  L 551.26 320.25
  Q 552.05 320.25 551.65 320.93
  L 535.90 347.03
  Q 535.62 347.50 535.07 347.50
  L 528.51 347.50
  Q 527.74 347.50 527.63 346.74
  L 523.88 320.70
  Q 523.82 320.25 524.28 320.25
  L 530.15 320.25
  Q 530.81 320.25 530.88 320.91
  L 532.97 340.70
  Q 533.04 341.37 533.37 340.77
  Z"
/>
<path fill="#fefefe" d="
  M 556.09 320.25
  L 562.11 320.25
  A 0.35 0.35 0.0 0 1 562.46 320.68
  L 556.55 347.23
  A 0.35 0.35 0.0 0 1 556.21 347.50
  L 550.16 347.50
  A 0.35 0.35 0.0 0 1 549.82 347.07
  L 555.75 320.52
  A 0.35 0.35 0.0 0 1 556.09 320.25
  Z"
/>
<path fill="#fefefe" d="
  M 598.92 342.50
  L 610.67 342.50
  A 0.38 0.38 0.0 0 1 611.05 342.96
  L 610.17 347.20
  A 0.38 0.38 0.0 0 1 609.80 347.50
  L 591.03 347.50
  A 0.38 0.38 0.0 0 1 590.66 347.04
  L 596.54 320.55
  A 0.38 0.38 0.0 0 1 596.91 320.25
  L 615.00 320.25
  A 0.38 0.38 0.0 0 1 615.37 320.72
  L 614.44 324.71
  A 0.38 0.38 0.0 0 1 614.07 325.00
  L 602.72 325.00
  A 0.38 0.38 0.0 0 0 602.35 325.29
  L 601.03 330.53
  A 0.38 0.38 0.0 0 0 601.40 331.00
  L 611.90 331.00
  A 0.38 0.38 0.0 0 1 612.27 331.46
  L 611.40 335.45
  A 0.38 0.38 0.0 0 1 611.02 335.75
  L 600.21 335.75
  A 0.38 0.38 0.0 0 0 599.84 336.05
  L 598.55 342.04
  A 0.38 0.38 0.0 0 0 598.92 342.50
  Z"
/>
<path fill="#fefefe" d="
  M 659.83 342.50
  L 671.63 342.50
  A 0.38 0.38 0.0 0 1 672.00 342.96
  L 671.10 347.20
  A 0.38 0.38 0.0 0 1 670.73 347.50
  L 651.99 347.50
  A 0.38 0.38 0.0 0 1 651.62 347.04
  L 657.45 320.55
  A 0.38 0.38 0.0 0 1 657.83 320.25
  L 675.93 320.25
  A 0.38 0.38 0.0 0 1 676.30 320.71
  L 675.41 324.70
  A 0.38 0.38 0.0 0 1 675.04 325.00
  L 663.59 325.00
  A 0.38 0.38 0.0 0 0 663.22 325.30
  L 662.04 330.54
  A 0.38 0.38 0.0 0 0 662.41 331.00
  L 672.87 331.00
  A 0.38 0.38 0.0 0 1 673.24 331.47
  L 672.30 335.53
  A 0.38 0.38 0.0 0 1 671.92 335.83
  L 661.19 335.71
  A 0.38 0.38 0.0 0 0 660.81 336.01
  L 659.45 342.04
  A 0.38 0.38 0.0 0 0 659.83 342.50
  Z"
/>
<path fill="#fefefe" d="
  M 717.98 325.25
  L 710.32 325.25
  A 0.34 0.34 0.0 0 1 709.99 324.83
  L 711.01 320.51
  A 0.34 0.34 0.0 0 1 711.34 320.25
  L 734.37 320.25
  A 0.34 0.34 0.0 0 1 734.70 320.67
  L 733.70 324.99
  A 0.34 0.34 0.0 0 1 733.37 325.25
  L 725.42 325.25
  A 0.34 0.34 0.0 0 0 725.09 325.52
  L 720.31 347.23
  A 0.34 0.34 0.0 0 1 719.98 347.50
  L 713.85 347.50
  A 0.34 0.34 0.0 0 1 713.52 347.09
  L 718.31 325.66
  A 0.34 0.34 0.0 0 0 717.98 325.25
  Z"
/>
<path fill="#fefefe" d="
  M 741.05 342.50
  L 752.76 342.50
  A 0.38 0.38 0.0 0 1 753.13 342.95
  L 752.33 347.19
  A 0.38 0.38 0.0 0 1 751.96 347.50
  L 733.08 347.50
  A 0.38 0.38 0.0 0 1 732.71 347.04
  L 738.63 320.55
  A 0.38 0.38 0.0 0 1 739.00 320.25
  L 757.10 320.25
  A 0.38 0.38 0.0 0 1 757.47 320.72
  L 756.56 324.67
  A 0.38 0.38 0.0 0 1 756.19 324.97
  L 744.73 325.16
  A 0.38 0.38 0.0 0 0 744.36 325.46
  L 743.20 330.53
  A 0.38 0.38 0.0 0 0 743.57 331.00
  L 754.01 331.00
  A 0.38 0.38 0.0 0 1 754.38 331.46
  L 753.49 335.45
  A 0.38 0.38 0.0 0 1 753.12 335.75
  L 742.32 335.75
  A 0.38 0.38 0.0 0 0 741.95 336.05
  L 740.68 342.04
  A 0.38 0.38 0.0 0 0 741.05 342.50
  Z"
/>
<path fill="#3e4095" d="
  M 505.94 324.84
  C 516.54 323.06 513.86 333.54 504.13 332.20
  Q 503.71 332.15 503.80 331.73
  L 505.29 325.45
  Q 505.41 324.93 505.94 324.84
  Z"
/>
<path fill="#3e4095" d="
  M 769.53 324.84
  C 780.21 322.96 777.47 333.75 767.92 332.12
  Q 767.44 332.04 767.54 331.56
  L 768.89 325.45
  Q 769.01 324.93 769.53 324.84
  Z"
/>
</svg>
